<svg xmlns="http://www.w3.org/2000/svg" viewBox="0 0 1348.38 549.79"><defs><style>.cls-1{fill:#212121;}.cls-2{fill:#fff;opacity:0.8;isolation:isolate;}</style></defs><g id="Calque_2" data-name="Calque 2"><g id="Calque_1-2" data-name="Calque 1"><g id="freepik--Snow--inject-31"><path id="elwypbcde78tp" class="cls-1" d="M1103.12,205.5a12.83,12.83,0,1,1-12.86-12.79h0A12.82,12.82,0,0,1,1103.12,205.5Z"/><g id="els24968jic5s"><path class="cls-2" d="M1103.12,205.5a12.83,12.83,0,1,1-12.86-12.79h0A12.82,12.82,0,0,1,1103.12,205.5Z"/></g><circle id="el8p1flb1py1t" class="cls-1" cx="1229.6" cy="313.01" r="12.83"/><g id="elaozoalxqlyi"><circle class="cls-2" cx="1229.6" cy="313.01" r="12.83"/></g><path id="elzbgg8ef2p9l" class="cls-1" d="M948.31,206.94a6.42,6.42,0,1,1-6.41-6.42h0A6.41,6.41,0,0,1,948.31,206.94Z"/><g id="elptnob2dpqyj"><path class="cls-2" d="M948.31,206.94a6.42,6.42,0,1,1-6.41-6.42h0A6.41,6.41,0,0,1,948.31,206.94Z"/></g><path id="elailjev0sxik" class="cls-1" d="M768,76.49a6.41,6.41,0,1,1-6.41-6.41h0A6.41,6.41,0,0,1,768,76.49Z"/><g id="elh40c54699aa"><path class="cls-2" d="M768,76.49a6.41,6.41,0,1,1-6.41-6.41h0A6.41,6.41,0,0,1,768,76.49Z"/></g><path id="elujfi92udych" class="cls-1" d="M1348.38,137.75a6.41,6.41,0,1,1-6.41-6.41h0A6.41,6.41,0,0,1,1348.38,137.75Z"/><g id="eltjx51w141we"><path class="cls-2" d="M1348.38,137.75a6.41,6.41,0,1,1-6.41-6.41h0A6.41,6.41,0,0,1,1348.38,137.75Z"/></g><path id="elx5p08dw571" class="cls-1" d="M863.58,53.64a3.19,3.19,0,1,1-3.19-3.23,3.19,3.19,0,0,1,3.19,3.23Z"/><g id="elq3vjjkxhcqh"><path class="cls-2" d="M863.58,53.64a3.19,3.19,0,1,1-3.19-3.23,3.19,3.19,0,0,1,3.19,3.23Z"/></g><path id="el9lkaxrp1af5" class="cls-1" d="M959.58,336.83a3.23,3.23,0,1,1-3.26-3.18h.08A3.21,3.21,0,0,1,959.58,336.83Z"/><g id="elbxmrqkro6wd"><path class="cls-2" d="M959.58,336.83a3.23,3.23,0,1,1-3.26-3.18h.08A3.21,3.21,0,0,1,959.58,336.83Z"/></g><path id="ely0n2yl5prd" class="cls-1" d="M474.89,350.4a3.23,3.23,0,1,1-3.26-3.19h.08A3.22,3.22,0,0,1,474.89,350.4Z"/><g id="eluvautrz94b"><path class="cls-2" d="M474.89,350.4a3.23,3.23,0,1,1-3.26-3.19h.08A3.22,3.22,0,0,1,474.89,350.4Z"/></g><path id="eltkcnopt2ek" class="cls-1" d="M619.33,66.89a3.19,3.19,0,1,1-3.19-3.19,3.19,3.19,0,0,1,3.19,3.19Z"/><g id="eltn7wriv04j"><path class="cls-2" d="M619.33,66.89a3.19,3.19,0,1,1-3.19-3.19,3.19,3.19,0,0,1,3.19,3.19Z"/></g><circle id="el63wggxr3ocw" class="cls-1" cx="495.34" cy="3.19" r="3.19"/><g id="elcrd8sqwl1ip"><circle class="cls-2" cx="495.34" cy="3.19" r="3.19"/></g><path id="elkcxyjfpxrrd" class="cls-1" d="M1098.89,25.89a3.23,3.23,0,1,1-3.23-3.23h0A3.23,3.23,0,0,1,1098.89,25.89Z"/><g id="elt0v4wtu9xuo"><path class="cls-2" d="M1098.89,25.89a3.23,3.23,0,1,1-3.23-3.23h0A3.23,3.23,0,0,1,1098.89,25.89Z"/></g><path id="elulccrq7i6ct" class="cls-1" d="M1288.53,53.64a3.23,3.23,0,1,1-3.23-3.23h0A3.23,3.23,0,0,1,1288.53,53.64Z"/><g id="el8ze4jjw0hb"><path class="cls-2" d="M1288.53,53.64a3.23,3.23,0,1,1-3.23-3.23h0A3.23,3.23,0,0,1,1288.53,53.64Z"/></g><path id="elrt9csq0mvns" class="cls-1" d="M764.74,10.88a3.23,3.23,0,1,1-3.23-3.22h0a3.18,3.18,0,0,1,3.19,3.18Z"/><g id="elbl265rty6a8"><path class="cls-2" d="M764.74,10.88a3.23,3.23,0,1,1-3.23-3.22h0a3.18,3.18,0,0,1,3.19,3.18Z"/></g><path id="elywpds1106fr" class="cls-1" d="M1208.54,99.81a6.42,6.42,0,1,1-6.42-6.41h0A6.42,6.42,0,0,1,1208.54,99.81Z"/><g id="elwkdn1m61on"><path class="cls-2" d="M1208.54,99.81a6.42,6.42,0,1,1-6.42-6.41h0A6.42,6.42,0,0,1,1208.54,99.81Z"/></g><path id="elpz910h1zgf" class="cls-1" d="M657.58,249a6.42,6.42,0,1,1-6.42-6.41h0a6.38,6.38,0,0,1,6.38,6.37Z"/><g id="el7q7mybhv0zj"><path class="cls-2" d="M657.58,249a6.42,6.42,0,1,1-6.42-6.41h0a6.38,6.38,0,0,1,6.38,6.37Z"/></g><path id="elqhid7msw1d" class="cls-1" d="M893.08,543.38a6.42,6.42,0,1,1-6.41-6.41h0a6.37,6.37,0,0,1,6.38,6.37Z"/><g id="el9wd49n9ugwb"><path class="cls-2" d="M893.08,543.38a6.42,6.42,0,1,1-6.41-6.41h0a6.37,6.37,0,0,1,6.38,6.37Z"/></g><path id="el0ca2xzjoauzg" class="cls-1" d="M768,183.38a6.41,6.41,0,1,1-6.41-6.41h0A6.41,6.41,0,0,1,768,183.38Z"/><g id="elyn23ee0al5j"><path class="cls-2" d="M768,183.38a6.41,6.41,0,1,1-6.41-6.41h0A6.41,6.41,0,0,1,768,183.38Z"/></g><path id="eltz264a42ko" class="cls-1" d="M536.23,543.38a6.42,6.42,0,1,1-6.41-6.41h0A6.41,6.41,0,0,1,536.23,543.38Z"/><g id="elz0njay42s3a"><path class="cls-2" d="M536.23,543.38a6.42,6.42,0,1,1-6.41-6.41h0A6.41,6.41,0,0,1,536.23,543.38Z"/></g><path id="elwr9j49migg" class="cls-1" d="M587.61,369.68a6.41,6.41,0,1,1-6.41-6.42h0a6.38,6.38,0,0,1,6.41,6.34Z"/><g id="elgvyi5i3nlvm"><path class="cls-2" d="M587.61,369.68a6.41,6.41,0,1,1-6.41-6.42h0a6.38,6.38,0,0,1,6.41,6.34Z"/></g><circle id="el6bjjr3xjsri" class="cls-1" cx="1017.26" cy="112.64" r="12.83"/><g id="el7i1alfttp3"><circle class="cls-2" cx="1017.26" cy="112.64" r="12.83"/></g><circle id="elzijq9on30uj" class="cls-1" cx="688.79" cy="446.87" r="12.83"/><g id="el9ugku5a4or"><circle class="cls-2" cx="688.79" cy="446.87" r="12.83"/></g><path id="ele5x1xobseyu" class="cls-1" d="M222.75,119.25a12.79,12.79,0,1,1,0-.08Z"/><g id="elza2j9m2unve"><path class="cls-2" d="M222.75,119.25a12.79,12.79,0,1,1,0-.08Z"/></g><path id="elaxpxoe8lzhj" class="cls-1" d="M101.37,379.16a6.42,6.42,0,1,1-6.45-6.37h0A6.41,6.41,0,0,1,101.37,379.16Z"/><g id="el4996qzrf3ti"><path class="cls-2" d="M101.37,379.16a6.42,6.42,0,1,1-6.45-6.37h0A6.41,6.41,0,0,1,101.37,379.16Z"/></g><path id="el1onjxg8a2w" class="cls-1" d="M84.23,93.4A6.42,6.42,0,1,1,77.81,87h0a6.38,6.38,0,0,1,6.38,6.37Z"/><g id="elc2ccqpr7jd8"><path class="cls-2" d="M84.23,93.4A6.42,6.42,0,1,1,77.81,87h0a6.38,6.38,0,0,1,6.38,6.37Z"/></g><path id="elc7ii21sbf8j" class="cls-1" d="M138.88,197.84a3.23,3.23,0,1,1-3.23-3.23,3.23,3.23,0,0,1,3.23,3.23Z"/><g id="el7in51r7f7ym"><path class="cls-2" d="M138.88,197.84a3.23,3.23,0,1,1-3.23-3.23,3.23,3.23,0,0,1,3.23,3.23Z"/></g><path id="elp1w0vq4j9pe" class="cls-1" d="M36.19,484.57A3.19,3.19,0,1,1,33,481.39a3.19,3.19,0,0,1,3.19,3.18Z"/><g id="eltrinxo8b9gf"><path class="cls-2" d="M36.19,484.57A3.19,3.19,0,1,1,33,481.39a3.19,3.19,0,0,1,3.19,3.18Z"/></g><path id="elskwf3u113c" class="cls-1" d="M226.14,22.54A3.19,3.19,0,1,1,223,19.36a3.19,3.19,0,0,1,3.19,3.18Z"/><g id="el2fnscdmydkk"><path class="cls-2" d="M226.14,22.54A3.19,3.19,0,1,1,223,19.36a3.19,3.19,0,0,1,3.19,3.18Z"/></g><path id="eltzpq9ewesoq" class="cls-1" d="M12.83,185.09a6.42,6.42,0,1,1-6.46-6.37h.08A6.38,6.38,0,0,1,12.83,185.09Z"/><g id="elu5zlu2wdr37"><path class="cls-2" d="M12.83,185.09a6.42,6.42,0,1,1-6.46-6.37h.08A6.38,6.38,0,0,1,12.83,185.09Z"/></g><path id="el8zgzob0cbqy" class="cls-1" d="M71.44,278.49a12.78,12.78,0,1,1,0-.08Z"/><g id="elv5nostrae4a"><path class="cls-2" d="M71.44,278.49a12.78,12.78,0,1,1,0-.08Z"/></g><path id="eltbxfiquph1m" class="cls-1" d="M520,236.32a12.83,12.83,0,1,1-12.87-12.79h0A12.83,12.83,0,0,1,520,236.32Z"/><g id="elkb5xoqzfni"><path class="cls-2" d="M520,236.32a12.83,12.83,0,1,1-12.87-12.79h0A12.83,12.83,0,0,1,520,236.32Z"/></g><path id="eluk7tjebl2h9" class="cls-1" d="M440.22,119.25a12.83,12.83,0,1,1-12.82-12.83h0a12.79,12.79,0,0,1,12.78,12.79Z"/><g id="el0qfnp7cmuzp"><path class="cls-2" d="M440.22,119.25a12.83,12.83,0,1,1-12.82-12.83h0a12.79,12.79,0,0,1,12.78,12.79Z"/></g><path id="elt3ughb5ijsn" class="cls-1" d="M803.41,278.49a12.83,12.83,0,1,1-12.83-12.82h0a12.77,12.77,0,0,1,12.83,12.74Z"/><g id="elbe7v5czjvjo"><path class="cls-2" d="M803.41,278.49a12.83,12.83,0,1,1-12.83-12.82h0a12.77,12.77,0,0,1,12.83,12.74Z"/></g></g></g></g></svg>