<svg xmlns="http://www.w3.org/2000/svg" viewBox="0 0 368.62 138.37"><defs><style>.cls-1{fill:#212121;}.cls-2{fill:#fff;opacity:0.7;isolation:isolate;}</style></defs><g id="Calque_2" data-name="Calque 2"><g id="freepik_stories-sunny-day" data-name="freepik stories-sunny-day"><path id="elfqle2ek60vw" class="cls-1" d="M123.48,32.54c31.74,0,36.54-25,16-25C128.39,7.54,116.09,21,104.94,21s7-21-4.18-21C86.27,0,70.81,21,60.38,21c-11.15,0-1.79-9.62-12.94-9.62-9.84,0-20.82,10.09-45.68,18.1-2.18.7-2.4,3-.29,3Z"/><path id="elpbrd4nqx3ud" class="cls-1" d="M347.75,105.87c16.74,0,26.11-18.67,17.79-18.67s-23.26,10.06-31.63,10.06,11.29-15.72,3-15.72S309,97.26,300.66,97.26s6.07-9.78-2.25-9.78c-7.36,0-23,10.13-41.54,16.12-1.63.52-1.79,2.27-.21,2.27Z"/><path id="elapc6izdafcj" class="cls-1" d="M115.85,138.33c9.9,0,12-11,7.1-11s-10.36,5.94-15.28,5.94,3.08-9.29-1.85-9.29c-7.42,0-14,9.29-17.83,9.29-4.92,0-.79-4.24-5.71-4.24-4.35,0-9.2,4.45-20.18,8-1,.31-1.06,1.34-.13,1.34Z"/><g id="el6uwuvo9ilwv"><path class="cls-2" d="M123.48,32.54c31.74,0,36.54-25,16-25C128.39,7.54,116.09,21,104.94,21s7-21-4.18-21C86.27,0,70.81,21,60.38,21c-11.15,0-1.79-9.62-12.94-9.62-9.84,0-20.82,10.09-45.68,18.1-2.18.7-2.4,3-.29,3Z"/></g><g id="eloh86jqor0z8"><path class="cls-2" d="M347.75,105.87c16.74,0,26.11-18.67,17.79-18.67s-23.26,10.06-31.63,10.06,11.29-15.72,3-15.72S309,97.26,300.66,97.26s6.07-9.78-2.25-9.78c-7.36,0-23,10.13-41.54,16.12-1.63.52-1.79,2.27-.21,2.27Z"/></g><g id="elmz2j7bgfowk"><path class="cls-2" d="M115.85,138.33c9.9,0,12-11,7.1-11s-10.36,5.94-15.28,5.94,3.08-9.29-1.85-9.29c-7.42,0-14,9.29-17.83,9.29-4.92,0-.79-4.24-5.71-4.24-4.35,0-9.2,4.45-20.18,8-1,.31-1.06,1.34-.13,1.34Z"/></g></g></g></svg>